<svg width="20" height="16" viewBox="0 0 20 16" fill="none" xmlns="http://www.w3.org/2000/svg">
<path d="M19.125 6.79688V7.32812C19.125 7.54948 19.0475 7.73763 18.8926 7.89258C18.7376 8.04753 18.5495 8.125 18.3281 8.125H18.0625L17.1992 14.2012C17.1549 14.4447 17.0553 14.666 16.9004 14.8652C16.7676 15.0866 16.5794 15.2526 16.3359 15.3633C16.1146 15.4961 15.8711 15.5625 15.6055 15.5625H3.51953C3.12109 15.5625 2.76693 15.4297 2.45703 15.1641C2.16927 14.9206 1.99219 14.5996 1.92578 14.2012L1.0625 8.125H0.796875C0.575521 8.125 0.38737 8.04753 0.232422 7.89258C0.077474 7.73763 0 7.54948 0 7.32812V6.79688C0 6.57552 0.077474 6.38737 0.232422 6.23242C0.38737 6.07747 0.575521 6 0.796875 6H3.02148L6.57422 1.11914C6.7513 0.875651 6.98372 0.731771 7.27148 0.6875C7.55924 0.643229 7.82487 0.709635 8.06836 0.886719C8.31185 1.0638 8.45573 1.29622 8.5 1.58398C8.54427 1.87174 8.47786 2.13737 8.30078 2.38086L5.64453 6H13.4805L10.8242 2.38086C10.6471 2.13737 10.5807 1.87174 10.625 1.58398C10.6693 1.29622 10.8132 1.0638 11.0566 0.886719C11.3001 0.709635 11.5658 0.643229 11.8535 0.6875C12.1413 0.731771 12.3737 0.875651 12.5508 1.11914L16.1035 6H18.3281C18.5495 6 18.7376 6.07747 18.8926 6.23242C19.0475 6.38737 19.125 6.57552 19.125 6.79688ZM10.3594 12.6406V8.92188C10.3594 8.70052 10.2819 8.51237 10.127 8.35742C9.97201 8.20247 9.78385 8.125 9.5625 8.125C9.34115 8.125 9.15299 8.20247 8.99805 8.35742C8.8431 8.51237 8.76562 8.70052 8.76562 8.92188V12.6406C8.76562 12.862 8.8431 13.0501 8.99805 13.2051C9.15299 13.36 9.34115 13.4375 9.5625 13.4375C9.78385 13.4375 9.97201 13.36 10.127 13.2051C10.2819 13.0501 10.3594 12.862 10.3594 12.6406ZM14.0781 12.6406V8.92188C14.0781 8.70052 14.0007 8.51237 13.8457 8.35742C13.6908 8.20247 13.5026 8.125 13.2812 8.125C13.0599 8.125 12.8717 8.20247 12.7168 8.35742C12.5618 8.51237 12.4844 8.70052 12.4844 8.92188V12.6406C12.4844 12.862 12.5618 13.0501 12.7168 13.2051C12.8717 13.36 13.0599 13.4375 13.2812 13.4375C13.5026 13.4375 13.6908 13.36 13.8457 13.2051C14.0007 13.0501 14.0781 12.862 14.0781 12.6406ZM6.64062 12.6406V8.92188C6.64062 8.70052 6.56315 8.51237 6.4082 8.35742C6.25326 8.20247 6.0651 8.125 5.84375 8.125C5.6224 8.125 5.43424 8.20247 5.2793 8.35742C5.12435 8.51237 5.04688 8.70052 5.04688 8.92188V12.6406C5.04688 12.862 5.12435 13.0501 5.2793 13.2051C5.43424 13.36 5.6224 13.4375 5.84375 13.4375C6.0651 13.4375 6.25326 13.36 6.4082 13.2051C6.56315 13.0501 6.64062 12.862 6.64062 12.6406Z" fill="#00A149"/>
</svg>
