<svg width="9" height="13" viewBox="0 0 9 13" fill="none" xmlns="http://www.w3.org/2000/svg">
<path d="M1.14004 6.44531L6.44473 1.14062C6.57233 1.01302 6.72728 0.949219 6.90957 0.949219C7.09186 0.949219 7.24681 1.01302 7.37442 1.14062L7.97598 1.74219C8.10358 1.86979 8.1765 2.02474 8.19473 2.20703C8.19473 2.38932 8.13093 2.54427 8.00332 2.67187L3.76504 6.91016L8.00332 11.1484C8.13092 11.276 8.19473 11.431 8.19473 11.6133C8.1765 11.7956 8.10358 11.9505 7.97598 12.0781L7.37441 12.6797C7.24681 12.8073 7.09186 12.8711 6.90957 12.8711C6.72728 12.8711 6.57233 12.8073 6.44473 12.6797L1.14004 7.375C0.994206 7.2474 0.92129 7.09245 0.92129 6.91016C0.92129 6.72786 0.994206 6.57292 1.14004 6.44531Z" fill="#616161"/>
</svg>
