<svg width="22" height="22" viewBox="0 0 22 22" fill="none" xmlns="http://www.w3.org/2000/svg">
    <path d="M12.5938 19.8594L11.5156 20.8906C11.2969 21.1094 11.0313 21.2187 10.7188 21.2187C10.4063 21.2187 10.1406 21.1094 9.92188 20.8906L0.828126 11.7969C0.609376 11.5781 0.500001 11.3125 0.500001 11C0.500001 10.6875 0.609376 10.4219 0.828126 10.2031L9.92188 1.10937C10.1406 0.890624 10.4063 0.781249 10.7188 0.781249C11.0313 0.781249 11.2969 0.890624 11.5156 1.10937L12.5938 2.14062C12.8125 2.35937 12.9219 2.625 12.9219 2.9375C12.8906 3.25 12.7656 3.51562 12.5469 3.73437L6.92188 9.125L20.375 9.125C20.6875 9.125 20.9531 9.23437 21.1719 9.45312C21.3906 9.67187 21.5 9.9375 21.5 10.25L21.5 11.75C21.5 12.0625 21.3906 12.3281 21.1719 12.5469C20.9531 12.7656 20.6875 12.875 20.375 12.875L6.92188 12.875L12.5469 18.2656C12.7656 18.4844 12.8906 18.75 12.9219 19.0625C12.9219 19.375 12.8125 19.6406 12.5938 19.8594Z" fill="#212121"/>
</svg>
