<svg width="23" height="17" viewBox="0 0 23 17" fill="none" xmlns="http://www.w3.org/2000/svg">
<path d="M17.4033 10.7885C16.5856 10.7885 15.8956 11.1018 15.3333 11.7284C14.7711 12.355 14.49 13.0905 14.49 13.9351C14.49 14.7796 14.7711 15.5016 15.3333 16.101C15.8956 16.7003 16.5728 17 17.365 17C18.1572 17 18.8344 16.7003 19.3967 16.101C19.9589 15.5016 20.24 14.7796 20.24 13.9351C20.24 13.0905 19.9589 12.355 19.3967 11.7284C18.8344 11.1018 18.17 10.7885 17.4033 10.7885ZM17.4033 15.4471C16.9944 15.4471 16.6494 15.2973 16.3683 14.9976C16.0872 14.6979 15.9467 14.3301 15.9467 13.8942C15.9467 13.4583 16.0872 13.0905 16.3683 12.7909C16.6494 12.4912 16.9817 12.3413 17.365 12.3413C17.7483 12.3413 18.0806 12.4912 18.3617 12.7909C18.6428 13.0905 18.7833 13.4583 18.7833 13.8942C18.7833 14.3301 18.6428 14.6979 18.3617 14.9976C18.0806 15.2973 17.7611 15.4471 17.4033 15.4471ZM7.43667 10.7885C6.67 10.7885 6.00556 11.1018 5.44333 11.7284C4.88111 12.355 4.6 13.0905 4.6 13.9351C4.6 14.7796 4.88111 15.5016 5.44333 16.101C6.00556 16.7003 6.68278 17 7.475 17C8.26722 17 8.94444 16.7003 9.50667 16.101C10.0689 15.5016 10.35 14.7796 10.35 13.9351C10.35 13.0905 10.0689 12.355 9.50667 11.7284C8.94444 11.1018 8.25445 10.7885 7.43667 10.7885ZM7.43667 15.4471C7.07889 15.4471 6.74667 15.2973 6.44 14.9976C6.13333 14.6979 5.98 14.3301 5.98 13.8942C5.98 13.4583 6.13333 13.0905 6.44 12.7909C6.74667 12.4912 7.09167 12.3413 7.475 12.3413C7.85833 12.3413 8.19056 12.4912 8.47167 12.7909C8.75278 13.0905 8.89333 13.4583 8.89333 13.8942C8.89333 14.3301 8.75278 14.6979 8.47167 14.9976C8.19056 15.2973 7.84556 15.4471 7.43667 15.4471ZM19.32 1.96154C19.1667 1.6891 18.9622 1.55289 18.7067 1.55289H14.8733V3.10577H18.2467L20.24 7.27404L21.4667 6.62019L19.32 1.96154ZM9.73667 13.1587H15.18V14.7115H9.73667V13.1587ZM5.29 13.1587H2.76C2.55556 13.1587 2.38944 13.2404 2.26167 13.4038C2.13389 13.5673 2.07 13.7444 2.07 13.9351C2.07 14.1258 2.13389 14.3029 2.26167 14.4663C2.38944 14.6298 2.55556 14.7115 2.76 14.7115H5.29C5.49444 14.7115 5.66056 14.6298 5.78833 14.4663C5.91611 14.3029 5.98 14.1258 5.98 13.9351C5.98 13.7444 5.91611 13.5673 5.78833 13.4038C5.66056 13.2404 5.49444 13.1587 5.29 13.1587ZM22.8467 8.41827L21.39 6.45673C21.2878 6.29327 21.1089 6.21154 20.8533 6.21154H15.5633V0.735577C15.5633 0.572115 15.4994 0.408653 15.3717 0.245193C15.2439 0.0817318 15.0778 0 14.8733 0H2.76C2.55556 0 2.38944 0.0817318 2.26167 0.245193C2.13389 0.408653 2.07 0.585737 2.07 0.776443C2.07 0.967148 2.13389 1.14423 2.26167 1.30769C2.38944 1.47115 2.55556 1.55289 2.76 1.55289H14.1067V6.94712C14.1067 7.16506 14.1833 7.35577 14.3367 7.51923C14.49 7.68269 14.6689 7.76442 14.8733 7.76442H20.47L21.5433 9.15385V13.1587H19.55C19.3456 13.1587 19.1667 13.2404 19.0133 13.4038C18.86 13.5673 18.7833 13.7444 18.7833 13.9351C18.7833 14.1258 18.86 14.3029 19.0133 14.4663C19.1667 14.6298 19.3456 14.7115 19.55 14.7115H22.31C22.4633 14.7115 22.6167 14.6298 22.77 14.4663C22.9233 14.3029 23 14.1122 23 13.8942V8.90865C23 8.74519 22.9489 8.58173 22.8467 8.41827ZM5.21333 9.23558H1.91667C1.71222 9.23558 1.53333 9.31731 1.38 9.48077C1.22667 9.64423 1.15 9.83494 1.15 10.0529C1.15 10.2708 1.22667 10.4479 1.38 10.5841C1.53333 10.7204 1.71222 10.7885 1.91667 10.7885H5.21333C5.41778 10.7885 5.59667 10.7204 5.75 10.5841C5.90333 10.4479 5.98 10.2708 5.98 10.0529C5.98 9.83494 5.90333 9.64423 5.75 9.48077C5.59667 9.31731 5.41778 9.23558 5.21333 9.23558ZM6.9 6.21154H0.69C0.536667 6.21154 0.383333 6.27965 0.23 6.41587C0.0766667 6.55208 0 6.72917 0 6.94712C0 7.16506 0.0766667 7.35577 0.23 7.51923C0.383333 7.68269 0.536667 7.76442 0.69 7.76442H6.9C7.10444 7.76442 7.28333 7.68269 7.43667 7.51923C7.59 7.35577 7.66667 7.16506 7.66667 6.94712C7.66667 6.72917 7.59 6.55208 7.43667 6.41587C7.28333 6.27965 7.10444 6.21154 6.9 6.21154ZM8.12667 3.1875H1.91667C1.71222 3.1875 1.53333 3.25561 1.38 3.39183C1.22667 3.52804 1.15 3.70513 1.15 3.92308C1.15 4.14103 1.22667 4.33173 1.38 4.49519C1.53333 4.65865 1.71222 4.74039 1.91667 4.74039H8.12667C8.28 4.74039 8.43333 4.65865 8.58667 4.49519C8.74 4.33173 8.81667 4.14103 8.81667 3.92308C8.81667 3.70513 8.74 3.52804 8.58667 3.39183C8.43333 3.25561 8.28 3.1875 8.12667 3.1875Z" fill="black"/>
</svg>
