<svg width="219" height="65" viewBox="0 0 219 65" fill="none" xmlns="http://www.w3.org/2000/svg">
    <path d="M20.3507 8.4082H18.6358C17.9127 8.4082 17.3342 9.03771 17.3342 9.82457C17.3342 10.6115 17.9127 11.2409 18.6358 11.2409H19.049V14.2311C19.049 15.9622 17.768 17.3561 16.1772 17.3561H5.47504C3.88418 17.3561 2.60322 15.9622 2.60322 14.2311V9.82457C2.60322 9.03771 2.02473 8.4082 1.30161 8.4082C0.578494 8.4082 0 9.03771 0 9.82457V14.2311C0 17.5134 2.4586 20.1889 5.47504 20.1889H16.1772C19.1936 20.1889 21.6522 17.5134 21.6522 14.2311V9.82457C21.6522 9.03771 21.0738 8.4082 20.3507 8.4082Z"
          fill="#004D77"/>
    <path d="M40.9079 8.38557C40.1846 8.38557 39.6062 9.01508 39.6062 9.80194V14.3433C39.6062 16.0744 38.3252 17.4683 36.7344 17.4683C35.1436 17.4683 33.8626 16.0744 33.8626 14.3433V4.51866C33.8626 3.7318 33.284 3.10229 32.5609 3.10229C31.8378 3.10229 31.2594 3.7318 31.2594 4.51866V14.3433C31.2594 17.6257 33.718 20.3011 36.7344 20.3011C39.7508 20.3011 42.2094 17.6257 42.2094 14.3433V9.80194C42.2094 9.03756 41.631 8.38557 40.9079 8.38557Z"
          fill="#004D77"/>
    <path d="M82.3523 9.82457C82.3523 9.03771 81.7737 8.4082 81.0506 8.4082C80.3275 8.4082 79.7491 9.03771 79.7491 9.82457V14.366C79.7491 16.0971 78.4681 17.491 76.8773 17.491C75.2863 17.491 74.0053 16.0971 74.0053 14.366V9.82457C74.0053 9.03771 73.4269 8.4082 72.7038 8.4082C72.7038 8.4082 72.7038 8.4082 72.6831 8.4082C71.96 8.4082 71.3816 9.03771 71.3816 9.82457V14.366C71.3816 15.9847 70.2453 17.3111 68.7989 17.4685C68.7576 17.4685 68.6957 17.4685 68.6542 17.491H68.6337C68.5924 17.491 68.5511 17.491 68.5303 17.491H68.5098C66.9395 17.4685 65.6585 16.0071 65.6585 14.276V9.93698C65.6585 9.82457 65.6378 9.68968 65.6172 9.59975C65.4726 8.9253 64.9355 8.43069 64.2742 8.4082C64.2537 8.4082 64.2329 8.4082 64.2124 8.4082C63.8197 8.4082 63.4685 8.58806 63.2 8.85785C62.952 9.15012 62.7868 9.53232 62.7868 9.95949V14.276C62.7868 15.9397 61.6092 17.401 60.0596 17.491C58.5927 17.5809 57.3323 16.4343 57.0845 14.928C57.0845 14.4109 57.0845 9.9145 57.0845 9.9145C57.0845 9.28501 56.7952 8.72296 56.0721 8.5431C55.9688 8.52061 55.8448 8.49815 55.7415 8.49815H51.9607C50.4938 8.4307 49.0889 9.01523 48.0352 10.1168C46.9607 11.2185 46.3823 12.7248 46.3616 14.3435C46.3616 17.5809 48.8822 20.2113 51.8573 20.2113H53.3448C54.0268 20.2113 54.6465 19.6492 54.6878 18.8848C54.7291 18.053 54.1299 17.3785 53.3863 17.3785H51.7953C50.2871 17.3785 49.0061 16.0971 48.9442 14.4334C48.9235 13.5566 49.2334 12.7472 49.812 12.1627C50.3699 11.5782 51.0929 11.2859 51.8573 11.3309H54.4192V14.2535C54.4192 17.4685 56.7126 20.1663 59.6464 20.3013C61.4851 20.3912 63.1174 19.4919 64.1711 18.053C65.1214 19.3345 66.547 20.2113 68.1584 20.3013H68.1792C68.2618 20.3013 68.3651 20.3013 68.4685 20.3013H68.489C68.5303 20.3013 68.5716 20.3013 68.6337 20.3013C68.7163 20.3013 68.8196 20.3011 68.9022 20.2788C69.109 20.2562 69.3155 20.2338 69.5014 20.1889C69.8733 20.1214 70.2453 20.009 70.5964 19.8291C70.6585 19.8065 70.6998 19.7842 70.7616 19.7393C71.5055 19.3795 72.1459 18.8174 72.6625 18.1654C73.6749 19.4693 75.1624 20.2788 76.8358 20.2788C79.8522 20.2788 82.311 17.6034 82.311 14.321V9.82457H82.3523Z"
          fill="#004D77"/>
    <path d="M110.884 8.4082C107.868 8.4082 105.409 11.0836 105.409 14.366V14.3884C105.409 16.1195 104.129 17.5134 102.538 17.5134H101.443C101.98 16.5917 102.29 15.5125 102.29 14.366C102.29 11.0836 99.8311 8.4082 96.8147 8.4082H93.0957C92.3726 8.4082 91.7942 9.03771 91.7942 9.82457C91.7942 10.6115 92.3726 11.2409 93.0957 11.2409H96.8147C98.4055 11.2409 99.6865 12.6348 99.6865 14.366C99.6865 16.0971 98.4055 17.491 96.8147 17.491H93.0957C92.3726 17.491 91.7942 18.1204 91.7942 18.9073C91.7942 19.6941 92.3726 20.3237 93.0957 20.3237H96.3807C96.4633 20.3462 96.5461 20.3462 96.6493 20.3462H102.558C104.232 20.3462 105.74 19.5144 106.752 18.2104C107.765 19.4919 109.252 20.3013 110.905 20.3013C113.921 20.3013 116.38 17.6259 116.38 14.3435C116.359 11.0611 113.901 8.4082 110.884 8.4082ZM110.884 17.4685C109.294 17.4685 108.013 16.0746 108.013 14.3435C108.013 12.6124 109.294 11.2185 110.884 11.2185C112.475 11.2185 113.756 12.6124 113.756 14.3435C113.756 16.0746 112.455 17.4685 110.884 17.4685Z"
          fill="#004D77"/>
    <path d="M87.6006 8.4082H85.9477C85.2246 8.4082 84.646 9.03771 84.646 9.82457C84.646 10.6115 85.2246 11.2409 85.9477 11.2409H86.2989V18.5476C86.2989 20.2788 85.0179 21.6726 83.4271 21.6726C82.704 21.6726 82.1254 22.3022 82.1254 23.089C82.1254 23.8759 82.704 24.5053 83.4271 24.5053C86.4435 24.5053 88.9021 21.83 88.9021 18.5476V9.82457C88.9021 9.03771 88.3029 8.4082 87.6006 8.4082Z"
          fill="#004D77"/>
    <path d="M27.4153 8.4082H25.7624C25.0394 8.4082 24.4607 9.03771 24.4607 9.82457C24.4607 10.6115 25.0394 11.2409 25.7624 11.2409H26.1136V18.5476C26.1136 20.2788 24.8326 21.6726 23.2418 21.6726C22.5187 21.6726 21.9403 22.3022 21.9403 23.089C21.9403 23.8759 22.5187 24.5053 23.2418 24.5053C26.2583 24.5053 28.7168 21.83 28.7168 18.5476V9.82457C28.7168 9.03771 28.1384 8.4082 27.4153 8.4082Z"
          fill="#004D77"/>
    <path d="M7.02488 11.2187H12.3966C13.1197 11.2187 13.6982 10.5892 13.6982 9.80236C13.6982 9.01549 13.1197 8.38599 12.3966 8.38599H7.02488C6.30175 8.38599 5.72327 9.01549 5.72327 9.80236C5.72327 10.5892 6.30175 11.2187 7.02488 11.2187Z"
          fill="#004D77"/>
    <path d="M39.7307 22.5044H33.7186C32.8301 22.5044 32.0864 23.2913 32.0864 24.2804C32.0864 25.2696 32.8095 26.0565 33.7186 26.0565H38.0986V27.1806C38.0986 28.1474 38.8216 28.9568 39.7307 28.9568C40.6397 28.9568 41.363 28.1699 41.363 27.1806V24.2804C41.3423 23.2913 40.6192 22.5044 39.7307 22.5044Z"
          fill="#004D77"/>
    <path d="M8.54341 49.8635H4.46944C2.37009 49.8635 0.644897 51.7575 0.644897 54.1134C0.644897 56.4463 2.34931 58.3634 4.46944 58.3634C6.56878 58.3634 8.29399 56.4694 8.29399 54.1134V51.0184H8.54341C8.8344 51.0184 9.06304 50.7643 9.06304 50.4411C9.06304 50.1176 8.81361 49.8635 8.54341 49.8635ZM7.2547 54.0904C7.2547 55.7996 6.00757 57.1854 4.46944 57.1854C2.93131 57.1854 1.68418 55.7996 1.68418 54.0904C1.68418 52.3811 2.93131 50.9953 4.46944 50.9953H7.2547V54.0904Z"
          fill="#78909C"/>
    <path d="M29.2235 49.7251H28.1425C27.8517 49.7251 27.6229 49.9792 27.6229 50.3026C27.6229 50.6259 27.8517 50.88 28.1425 50.88H28.7246V54.229C28.7246 55.9152 27.4774 57.301 25.9602 57.301C24.4635 57.301 23.258 55.9844 23.1956 54.3445C23.1956 54.2984 23.1956 54.2753 23.1956 54.229V50.3026C23.1956 49.9792 22.967 49.7251 22.676 49.7251C22.3849 49.7251 22.1563 49.9792 22.1563 50.3026V54.229C22.1563 54.2753 22.1563 54.2984 22.1563 54.3445C22.1148 55.9844 20.8884 57.301 19.3919 57.301C17.8745 57.301 16.6274 55.9152 16.6274 54.229C16.6274 54.1136 16.6066 54.0212 16.5443 53.9289C16.4819 51.6653 14.7983 49.8637 12.7613 49.8637H10.5996C10.3086 49.8637 10.08 50.1178 10.08 50.4411C10.08 50.7645 10.3086 51.0186 10.5996 51.0186H12.7613C14.2786 51.0186 15.5258 52.4044 15.5258 54.0904C15.5258 55.7766 14.2786 57.1624 12.7613 57.1624H10.5996C10.3086 57.1624 10.08 57.4165 10.08 57.7398C10.08 58.0633 10.3086 58.3173 10.5996 58.3173H12.7613C14.1539 58.3173 15.3803 57.4628 16.0454 56.2153C16.6898 57.5551 17.9369 58.4789 19.3919 58.4789C20.7845 58.4789 22.0109 57.6243 22.6552 56.3771C23.3203 57.6243 24.5259 58.4789 25.9185 58.4789C27.9971 58.4789 29.7015 56.5851 29.7015 54.2753V50.3487C29.7431 49.9792 29.5145 49.7251 29.2235 49.7251Z"
          fill="#78909C"/>
    <path d="M115.216 49.8178H114.239C113.948 49.8178 113.719 50.0719 113.719 50.3952C113.719 50.7184 113.948 50.9725 114.239 50.9725H114.717V54.3217C114.717 56.0077 113.47 57.3936 111.952 57.3936H106.319C106.091 57.3936 105.883 57.2781 105.738 57.0934L104.823 55.9154L107.858 52.0582C108.024 51.8273 108.024 51.5038 107.837 51.2729C106.881 50.2103 105.717 49.7021 104.158 49.7021C102.744 49.7021 101.497 50.2103 100.541 51.1574C100.52 51.1805 100.479 51.2035 100.458 51.2266C100.416 51.2729 100.396 51.296 100.375 51.3421C100.001 51.7347 99.689 52.1968 99.4396 52.7279C99.3147 53.0051 99.3979 53.3515 99.6475 53.4901C99.8968 53.6287 100.209 53.5364 100.333 53.2592C100.458 52.982 100.624 52.7279 100.791 52.497L103.472 55.9154L102.516 57.1164C102.37 57.3012 102.163 57.4167 101.934 57.4167H98.899C97.3818 57.4167 96.1346 56.0309 96.1346 54.3447C96.1346 54.3447 96.1346 54.3449 96.1346 54.3217V54.2986C96.1346 51.8273 94.3263 49.7947 92.0814 49.7947H87.571C87.5295 49.7947 87.5087 49.7947 87.467 49.8178C87.4048 49.8178 87.3216 49.7947 87.2592 49.7947C85.0976 49.7947 83.3516 51.7347 83.3516 54.1369C83.3516 55.3841 83.8295 56.4927 84.578 57.3012H80.0258C80.7741 56.5159 81.2315 55.4072 81.2315 54.1831C81.2315 51.8041 79.4854 49.8639 77.3444 49.8639H74.3514C74.0604 49.8639 73.8318 50.118 73.8318 50.4414C73.8318 50.7647 74.0604 51.0188 74.3514 51.0188H77.3444C78.9243 51.0188 80.2129 52.4509 80.2129 54.2063C80.2129 55.7537 79.2152 57.0472 77.885 57.3244H77.8226C77.6562 57.3475 77.5108 57.3704 77.3444 57.3704H74.3514C74.0604 57.3704 73.8318 57.6245 73.8318 57.948C73.8318 58.2713 74.0604 58.5253 74.3514 58.5253H77.3444C77.5108 58.5253 77.6772 58.5022 77.8226 58.4793V58.5022H86.407V58.4099C86.6773 58.4793 86.9681 58.5253 87.2592 58.5253H90.1484V58.8488C90.1484 59.1721 90.3771 59.4262 90.6681 59.4262C90.9591 59.4262 91.1877 59.1721 91.1877 58.8488V54.1831C91.1877 52.9128 90.6888 51.7579 89.8989 50.9725H92.1023C93.765 50.9725 95.1161 52.4738 95.1161 54.3217C95.1161 56.0077 93.8689 57.3936 92.3517 57.3936C92.0607 57.3936 91.8321 57.6476 91.8321 57.9711C91.8321 58.2944 92.0607 58.5485 92.3517 58.5485C93.7443 58.5485 94.9499 57.717 95.615 56.4698C96.2593 57.74 97.5065 58.5947 98.899 58.5947H101.934C102.453 58.5947 102.952 58.3407 103.285 57.9017L104.137 56.8162L104.969 57.8786C105.301 58.3175 105.8 58.5716 106.319 58.5716H111.952C114.031 58.5716 115.735 56.6776 115.735 54.3678V50.4414C115.735 50.0719 115.507 49.8178 115.216 49.8178ZM90.1484 54.16V57.3704H87.2592C85.6587 57.3704 84.3701 55.9385 84.3701 54.16C84.3701 52.3815 85.6587 50.9494 87.2592 50.9494C88.8596 50.9494 90.1484 52.4046 90.1484 54.16ZM101.539 51.7347C102.246 51.1574 103.139 50.857 104.158 50.857C105.259 50.857 106.049 51.1343 106.756 51.7347L104.137 55.0608L101.539 51.7347Z"
          fill="#78909C"/>
    <path d="M51.6544 49.7251C51.3634 49.7251 51.1348 49.9792 51.1348 50.3026V54.0904C51.1348 55.8689 49.846 57.301 48.2455 57.301C46.7905 57.301 45.5641 56.0769 45.3772 54.5062C45.398 54.437 45.4187 54.3676 45.4187 54.2984V50.3718C45.4187 50.2101 45.3563 50.0715 45.2733 49.9792C45.1694 49.8637 45.0445 49.8174 44.9198 49.8174H41.7812C40.7212 49.7714 39.7236 50.187 38.9544 50.9955C38.1854 51.8039 37.7697 52.9126 37.7697 54.0904C37.7697 56.4465 39.4948 58.3634 41.615 58.3634H42.9661C43.2569 58.3634 43.4857 58.1093 43.4857 57.7861C43.4857 57.4628 43.2569 57.2087 42.9661 57.2087H41.615C40.0561 57.2087 38.7882 55.7997 38.7882 54.0675C38.7882 53.2127 39.1 52.4044 39.6611 51.804C40.2223 51.2033 40.9707 50.9031 41.7604 50.9492H44.3587V54.0904C44.3587 56.4926 46.1255 58.4328 48.2663 58.4328C50.428 58.4328 52.1741 56.4694 52.1741 54.0904V50.3026C52.1741 49.9792 51.9453 49.7251 51.6544 49.7251Z"
          fill="#78909C"/>
    <path d="M71.4005 49.9099H70.2366C68.1163 49.9099 66.3704 51.8731 66.3704 54.2984V54.3215C66.3704 54.3444 66.3704 54.3444 66.3704 54.3444V54.9681C66.3704 56.7005 65.1233 58.1324 63.6059 58.1324H59.8229C58.1186 58.1324 56.7258 56.5388 56.7258 54.5985C56.7258 52.6585 58.1186 51.0648 59.8229 51.0648H62.7329C63.0447 51.0648 63.2941 50.7876 63.2941 50.4412C63.2941 50.0946 63.0447 49.8174 62.7329 49.8174H59.8229C57.5157 49.8174 55.6243 51.9654 55.6243 54.6216C55.6243 57.2779 57.5157 59.4259 59.8229 59.4259H63.6059C65.7469 59.4259 67.472 57.4396 67.472 55.0143V54.4138V54.3907C67.472 54.3676 67.472 54.3676 67.472 54.3676C67.472 52.6353 68.7191 51.2032 70.2366 51.2032H71.4005C71.7123 51.2032 71.9617 50.9262 71.9617 50.5796C71.9409 50.1871 71.6914 49.9099 71.4005 49.9099Z"
          fill="#78909C"/>
    <path d="M32.6338 47.3H31.7192C31.4282 47.3 31.1996 47.5541 31.1996 47.8774C31.1996 48.2007 31.4282 48.4548 31.7192 48.4548H32.1142V57.7861C32.1142 58.1095 32.3428 58.3636 32.6338 58.3636C32.9249 58.3636 33.1535 58.1095 33.1535 57.7861V47.8774C33.1535 47.5541 32.9249 47.3 32.6338 47.3Z"
          fill="#78909C"/>
    <path d="M35.1504 44.251H30.7232C29.6424 44.251 28.6446 44.9671 28.2289 46.0758C28.1249 46.353 28.2289 46.6994 28.4991 46.8148C28.5614 46.838 28.6238 46.8611 28.707 46.8611C28.9149 46.8611 29.102 46.7225 29.185 46.5145C29.4553 45.8217 30.0581 45.3598 30.7439 45.3598H35.1713C35.4622 45.3598 35.691 45.1057 35.691 44.7823C35.6701 44.5051 35.4414 44.251 35.1504 44.251Z"
          fill="#78909C"/>
    <path d="M109.853 50.9261H112.222C112.472 50.9261 112.659 50.6721 112.659 50.3486C112.659 50.0253 112.451 49.7712 112.222 49.7712H109.853C109.603 49.7712 109.416 50.0253 109.416 50.3486C109.395 50.6721 109.603 50.9261 109.853 50.9261Z"
          fill="#78909C"/>
    <path d="M27.3138 60.7422H24.5699C24.2791 60.7422 24.0503 60.9963 24.0503 61.3197C24.0503 61.643 24.2791 61.8971 24.5699 61.8971H27.3138C27.6046 61.8971 27.8334 61.643 27.8334 61.3197C27.8334 60.9963 27.6046 60.7422 27.3138 60.7422Z"
          fill="#78909C"/>
    <path d="M18.7078 50.9261H19.3729C19.6639 50.9261 19.8925 50.6721 19.8925 50.3486C19.8925 50.0253 19.6639 49.7712 19.3729 49.7712H18.7078C18.4168 49.7712 18.1881 50.0253 18.1881 50.3486C18.1881 50.6721 18.4168 50.9261 18.7078 50.9261Z"
          fill="#78909C"/>
    <path d="M48.5763 60.3499H47.9112C47.6202 60.3499 47.3916 60.6039 47.3916 60.9274C47.3916 61.2507 47.6202 61.5047 47.9112 61.5047H48.5763C48.8674 61.5047 49.096 61.2507 49.096 60.9274C49.096 60.6039 48.8674 60.3499 48.5763 60.3499Z"
          fill="#78909C"/>
    <path d="M208.753 36.8848C208.753 38.204 207.917 39.3522 206.765 39.7919C207.942 40.256 208.753 41.3796 208.753 42.6989C208.753 41.3796 209.587 40.2316 210.741 39.7919C209.587 39.3522 208.753 38.204 208.753 36.8848ZM197.044 4.05252C196.577 4.0281 196.111 4.00367 195.621 4.05252C194.074 4.22352 192.724 4.83426 191.594 5.90911C191.398 6.08011 191.226 6.27554 191.054 6.49541C190.539 7.13055 190.121 7.83898 189.729 8.57185C189.704 8.6207 189.68 8.66956 189.68 8.71843C189.532 8.98714 189.385 9.25584 189.262 9.54899L189.066 10.0132C188.992 10.1353 188.943 10.2819 188.894 10.4284C188.698 10.9414 188.82 11.4544 189.262 11.7964C189.95 12.3583 190.661 12.9446 191.349 13.5065C191.594 13.7263 191.913 13.7996 192.257 13.7752C192.503 13.7752 192.724 13.6286 192.92 13.5065C192.92 13.5065 194.662 12.6026 196.063 10.8437C196.725 10.0376 197.19 9.207 197.461 8.30313C197.805 7.08169 197.805 5.78696 197.388 4.41896C197.388 4.17468 197.24 4.05252 197.044 4.05252ZM188.084 14.7279C188.035 15.0699 188.379 15.3631 188.722 15.2409L191.692 14.2393L188.501 11.6743L188.084 14.7279ZM188.354 10.3551C188.698 9.47572 189.14 8.6207 189.655 7.81454C189.753 7.64356 189.827 7.47255 189.704 7.30156C189.557 7.10612 189.385 7.13055 189.188 7.17942C188.329 7.35041 187.617 8.18099 187.077 8.7917C186.734 9.18257 186.366 9.69557 186.636 10.233C186.906 10.8926 188.059 11.1369 188.354 10.3551ZM209.883 14.9722C208.065 14.2637 206.765 12.4805 206.765 10.4284C206.765 12.5049 205.464 14.2637 203.647 14.9722C205.464 15.6806 206.765 17.4639 206.765 19.5159C206.765 17.4395 208.065 15.6806 209.883 14.9722ZM155.338 1.56079C155.338 3.24638 154.282 4.68766 152.809 5.24953C154.282 5.83583 155.338 7.2527 155.338 8.93828C155.338 7.2527 156.393 5.8114 157.866 5.24953C156.393 4.66325 155.338 3.22195 155.338 1.56079ZM195.644 12.0163C195.423 11.9186 195.252 12.0407 195.104 12.2117C194.343 12.969 193.558 13.6774 192.699 14.2882C191.962 14.8256 192.503 15.9982 193.264 16.1448C193.926 16.2669 194.368 15.7539 194.712 15.2653C195.252 14.508 195.963 13.5065 195.94 12.5537C195.915 12.3094 195.89 12.114 195.644 12.0163Z"
          fill="#FC5954"/>
    <path d="M165.707 51.4929C167.647 57.9665 171.255 62.2172 171.991 63.4386C172.016 63.2675 171.991 63.121 171.967 62.9744C171.599 61.2156 170.028 56.3786 170.028 54.5466C170.028 53.9847 170.151 53.8868 170.715 54.0579C174.814 55.3526 178.963 55.5724 183.185 54.7175C184.093 54.5466 185.002 54.3023 185.885 54.009C178.693 51.5417 167.794 45.5322 164.112 42.21C164.21 45.1902 164.701 48.1217 165.707 51.4929Z"
          fill="#004D77"/>
    <path d="M217.133 54.84C216.299 53.1787 215.119 51.7864 213.794 50.4915C212.395 49.0992 210.874 47.8288 209.327 46.6074C208.64 46.07 207.952 45.5326 207.289 44.9463C206.651 44.3844 205.989 43.847 205.178 43.5782C203.754 43.1142 202.233 43.9692 202.233 45.5813C202.233 46.7051 203.142 47.5602 203.975 48.1953C205.474 49.319 206.97 50.4672 208.419 51.6642C209.107 52.2261 211.708 53.9361 210.824 55.0599C210.382 55.6217 209.229 55.304 208.64 55.2063C205.376 54.6689 198.846 52.397 193.273 50.1007C195.801 48.1464 197.963 45.7035 199.607 42.9431C204.909 34.0754 204.515 21.8367 196.12 15.2409C196.218 15.4363 197.079 16.8288 197.692 18.7342C198.502 21.1526 199.09 24.3529 199.09 26.2582C199.09 30.5088 197.986 34.3931 195.359 37.8131C190.303 44.4089 179.551 45.5813 173.758 38.204C171.082 34.7839 170.174 30.8508 170.665 26.5759C170.665 26.5759 171.107 27.5286 171.23 27.8218C172.138 29.776 173.488 31.6083 175.157 32.9761C176.974 34.4663 179.183 35.4434 181.638 35.5169C186.081 35.6388 190.008 32.5119 191.113 28.2858C191.849 25.4765 191.407 22.3008 189.886 19.8335C189.517 19.2472 189.051 18.5632 188.56 18.0502C188.265 18.3922 187.75 18.9785 186.891 20.0289C186.744 20.2245 186.694 20.4686 186.866 20.6642C187.455 21.3725 187.774 22.4717 187.603 23.4001C187.504 23.9375 187.259 24.4261 186.915 24.8414C186.817 24.9635 185.909 25.8185 185.811 25.6965C186.351 26.3316 186.596 27.2355 186.351 28.1636C186.032 29.3118 184.976 30.0936 183.798 30.1425C182.914 30.167 182.374 29.8005 181.711 29.2874C181.613 29.2142 181.515 29.1165 181.392 29.0432C180.214 29.9469 178.545 29.9714 177.317 29.1165C176.409 28.4569 175.893 27.2355 175.844 26.0873C175.844 25.9406 176.041 25.8429 176.139 25.9651C176.851 26.7468 177.956 26.82 178.766 26.1362C178.716 26.185 178.226 25.8919 178.152 25.8429C177.931 25.7208 177.735 25.5743 177.538 25.4277C177.17 25.1346 176.826 24.7926 176.581 24.3772C175.28 22.3253 176.581 19.4427 178.643 18.4411C179.158 18.1968 179.723 18.0502 180.287 18.0502C180.975 18.0502 181.662 18.2212 182.227 18.6121C182.718 18.9541 183.331 19.467 183.97 19.1984C184.362 19.0274 184.608 18.6121 184.878 18.2945C185.222 17.8792 186.253 16.6089 186.424 16.4135C182.227 13.8973 176.262 14.1416 172.064 17.5372C167.155 21.5191 164.945 28.6523 164.283 34.7839C162.319 33.5869 160.404 32.3655 158.489 31.0951C159.962 23.8887 163.178 16.6333 169.462 12.3827C172.04 10.6483 175.059 9.42685 178.176 8.84057C180.042 8.35198 183.086 7.98556 187.357 8.66957C186.768 8.32757 186.154 8.03442 185.516 7.79013C178.987 5.15182 171.5 5.54268 165.387 9.06043C158.71 12.8957 154.537 19.809 153.433 27.3332C153.433 27.3819 151.616 26.0383 151.371 25.8429C150.634 25.2566 142.951 19.4183 140.472 16.4623C140.226 16.1692 140.079 15.8761 140.3 15.5096C140.521 15.1432 140.864 14.9966 141.282 15.0943C144.399 15.7539 147.32 17.0975 150.364 18.0258C152.279 18.6121 153.604 17.4151 153.604 16.0226C153.604 13.9462 151.002 13.5065 149.481 12.9935C146.437 11.9919 143.417 11.0392 140.226 10.575C138.729 10.3551 137.28 10.4529 135.881 11.0147C134.875 11.43 134.065 12.285 133.77 13.3355C133.451 14.5325 133.942 15.8028 134.531 16.8532C135.832 19.1495 137.624 21.0062 139.514 22.7895C143.736 26.7468 148.376 30.2402 153.163 33.5137C153.261 35.5901 153.555 37.6664 154.022 39.6941C154.832 43.2607 156.01 46.8272 157.728 50.0763C157.655 49.5878 157.728 50.0763 157.63 48.5863C157.36 44.6042 157.311 40.5492 157.704 36.5427C157.679 36.7138 159.324 37.5932 159.52 37.7154C160.159 38.1306 160.772 38.5216 161.41 38.9368C162.687 39.743 163.939 40.5247 165.215 41.3309C167.768 42.8944 170.346 44.4333 172.948 45.8991C178.103 48.8304 183.405 51.5176 188.855 53.8627C193.936 56.037 199.14 57.918 204.467 59.4082C206.26 59.9211 208.075 60.3608 209.917 60.6051C211.66 60.8495 213.525 61.0204 215.242 60.483C216.593 60.0677 217.526 58.9685 217.624 57.747C217.772 56.721 217.6 55.7682 217.133 54.84Z"
          fill="#004D77"/>
</svg>
