<svg width="45" height="45" viewBox="0 0 45 45" fill="none" xmlns="http://www.w3.org/2000/svg">
<path d="M22.1717 11.0195C28.324 11.0195 33.4021 16.0977 33.4021 22.25C33.4021 28.5 28.324 33.4805 22.1717 33.4805C15.9217 33.4805 10.9412 28.5 10.9412 22.25C10.9412 16.0977 15.9217 11.0195 22.1717 11.0195ZM22.1717 29.5742C26.1756 29.5742 29.3982 26.3516 29.3982 22.25C29.3982 18.2461 26.1756 15.0234 22.1717 15.0234C18.0701 15.0234 14.8475 18.2461 14.8475 22.25C14.8475 26.3516 18.1678 29.5742 22.1717 29.5742ZM36.4295 10.6289C36.4295 12.0938 35.2576 13.2656 33.7928 13.2656C32.3279 13.2656 31.1561 12.0938 31.1561 10.6289C31.1561 9.16406 32.3279 7.99219 33.7928 7.99219C35.2576 7.99219 36.4295 9.16406 36.4295 10.6289ZM43.8514 13.2656C44.0467 16.8789 44.0467 27.7188 43.8514 31.332C43.6561 34.8477 42.8748 37.875 40.3357 40.5117C37.7967 43.0508 34.6717 43.832 31.1561 44.0273C27.5428 44.2227 16.7029 44.2227 13.0896 44.0273C9.57402 43.832 6.54668 43.0508 3.90996 40.5117C1.3709 37.875 0.589649 34.8477 0.394337 31.332C0.199024 27.7188 0.199024 16.8789 0.394337 13.2656C0.589649 9.75 1.3709 6.625 3.90996 4.08594C6.54668 1.54688 9.57402 0.765625 13.0896 0.570312C16.7029 0.375 27.5428 0.375 31.1561 0.570312C34.6717 0.765625 37.7967 1.54688 40.3357 4.08594C42.8748 6.625 43.6561 9.75 43.8514 13.2656ZM39.1639 35.1406C40.3357 32.3086 40.0428 25.4727 40.0428 22.25C40.0428 19.125 40.3357 12.2891 39.1639 9.35938C38.3826 7.50391 36.9178 5.94141 35.0623 5.25781C32.1326 4.08594 25.2967 4.37891 22.1717 4.37891C18.949 4.37891 12.1131 4.08594 9.28106 5.25781C7.32793 6.03906 5.86309 7.50391 5.08184 9.35938C3.90996 12.2891 4.20293 19.125 4.20293 22.25C4.20293 25.4727 3.90996 32.3086 5.08184 35.1406C5.86309 37.0938 7.32793 38.5586 9.28106 39.3398C12.1131 40.5117 18.949 40.2188 22.1717 40.2188C25.2967 40.2188 32.1326 40.5117 35.0623 39.3398C36.9178 38.5586 38.4803 37.0938 39.1639 35.1406Z" fill="white"/>
</svg>
