<svg width="45" height="30" viewBox="0 0 45 30" fill="none" xmlns="http://www.w3.org/2000/svg">
<path d="M44.0281 26.5292C43.5941 25.6347 42.9801 24.885 42.2901 24.1877C41.5621 23.438 40.7701 22.754 39.9651 22.0963C39.6071 21.8069 39.2491 21.5176 38.9041 21.2018C38.5721 20.8993 38.2271 20.6099 37.8051 20.4652C37.0641 20.2153 36.2721 20.6757 36.2721 21.5438C36.2721 22.1489 36.7451 22.6093 37.1791 22.9513C37.9591 23.5564 38.7381 24.1747 39.4921 24.8192C39.8501 25.1217 41.2041 26.0425 40.7441 26.6476C40.5141 26.9502 39.9141 26.7791 39.6071 26.7265C37.9081 26.4371 34.5091 25.2138 31.6081 23.9773C32.9241 22.925 34.0491 21.6096 34.9051 20.1232C37.6651 15.3483 37.4601 8.7582 33.0901 5.20665C33.1411 5.31187 33.5891 6.06164 33.9081 7.08766C34.3301 8.38987 34.6361 10.1131 34.6361 11.139C34.6361 13.4278 34.0611 15.5194 32.6941 17.3609C30.0619 20.9125 24.4651 21.5438 21.4494 17.5714C20.0566 15.7298 19.5838 13.612 19.8394 11.3101C19.8394 11.3101 20.0694 11.8231 20.1333 11.981C20.6061 13.0332 21.3089 14.0198 22.1778 14.7564C23.1234 15.5588 24.2734 16.0849 25.5512 16.1245C27.8641 16.1901 29.9086 14.5064 30.4836 12.2308C30.8669 10.7181 30.6369 9.00814 29.8447 7.67958C29.653 7.36386 29.4102 6.99558 29.1547 6.71935C29.0013 6.90351 28.733 7.2192 28.2857 7.78479C28.2091 7.8901 28.1835 8.02155 28.273 8.12686C28.5796 8.50826 28.7457 9.10017 28.6563 9.60005C28.6052 9.88942 28.4774 10.1525 28.2985 10.3761C28.2474 10.4419 27.7746 10.9023 27.7235 10.8366C28.0046 11.1786 28.1324 11.6653 28.0046 12.165C27.8385 12.7833 27.289 13.2042 26.6757 13.2306C26.2157 13.2438 25.9346 13.0464 25.5896 12.7701C25.5384 12.7307 25.4873 12.6781 25.4234 12.6387C24.8101 13.1253 23.9412 13.1384 23.3023 12.6781C22.8295 12.3229 22.5611 11.6653 22.5356 11.047C22.5356 10.968 22.6378 10.9154 22.6889 10.9812C23.0595 11.4021 23.6345 11.4416 24.0562 11.0733C24.0306 11.0996 23.7751 10.9418 23.7367 10.9154C23.6217 10.8497 23.5195 10.7708 23.4173 10.6918C23.2256 10.534 23.0467 10.3499 22.9189 10.1262C22.2417 9.02132 22.9189 7.46917 23.9923 6.92981C24.2606 6.79827 24.5545 6.71935 24.8484 6.71935C25.2062 6.71935 25.564 6.81143 25.8579 7.02189C26.1135 7.20604 26.4329 7.48224 26.7651 7.33761C26.9696 7.2455 27.0974 7.02189 27.2379 6.85088C27.4168 6.62726 27.9535 5.94326 28.043 5.83804C25.8579 4.48318 22.7528 4.61471 20.5678 6.44311C18.0121 8.58721 16.8621 12.4282 16.5171 15.7298C15.4948 15.0853 14.4981 14.4276 13.5014 13.7435C14.2681 9.86317 15.9421 5.95642 19.2133 3.66763C20.555 2.7337 22.1267 2.076 23.7495 1.76031C24.7206 1.49722 26.3051 1.29991 28.5285 1.66823C28.2218 1.48408 27.9024 1.32623 27.5702 1.19469C24.1712 -0.225942 20.2739 -0.015478 17.0921 1.87869C13.6165 3.94386 11.4442 7.6664 10.8692 11.7179C10.8692 11.7441 9.9236 11.0206 9.7958 10.9154C9.4124 10.5997 5.4129 7.45599 4.1223 5.86434C3.9945 5.7065 3.9179 5.54865 4.0329 5.35133C4.1479 5.15402 4.3268 5.07511 4.544 5.12772C6.1668 5.48288 7.6874 6.20634 9.2719 6.70619C10.2686 7.02189 10.9586 6.37734 10.9586 5.62756C10.9586 4.50948 9.6041 4.27271 8.8119 3.99648C7.2274 3.45717 5.6557 2.94416 3.9945 2.69423C3.2151 2.57585 2.4611 2.62846 1.7328 2.93101C1.2089 3.15463 0.787201 3.61501 0.633901 4.18063C0.467801 4.82518 0.723304 5.50918 1.03 6.0748C1.7072 7.31126 2.64001 8.31102 3.62401 9.27126C5.82181 11.4021 8.2369 13.2832 10.7286 15.0458C10.7797 16.1639 10.933 17.2819 11.1758 18.3737C11.5975 20.2942 12.2109 22.2147 13.1053 23.9642C13.067 23.7011 13.1053 23.9642 13.0542 23.1618C12.9137 21.0177 12.8881 18.8342 13.0926 16.6768C13.0798 16.769 13.9359 17.2425 14.0381 17.3083C14.3704 17.5319 14.6898 17.7424 15.022 17.966C15.6865 18.4001 16.3382 18.821 17.0027 19.2551C18.3316 20.097 19.6733 20.9256 21.0278 21.7149C23.7112 23.2933 26.4712 24.7402 29.308 26.003C31.9531 27.1738 34.6621 28.1866 37.4351 28.989C38.3681 29.2652 39.3131 29.502 40.2721 29.6335C41.1791 29.7651 42.1501 29.8571 43.0441 29.5678C43.7471 29.3442 44.2331 28.7523 44.2841 28.0946C44.3611 27.5421 44.2711 27.029 44.0281 26.5292Z" fill="white"/>
</svg>
