<svg width="114" height="35" viewBox="0 0 114 35" fill="none" xmlns="http://www.w3.org/2000/svg">
    <g clip-path="url(#clip0_71_158)">
        <path d="M10.5935 4.52759H9.70082C9.32441 4.52759 9.02327 4.86655 9.02327 5.29025C9.02327 5.71395 9.32441 6.05291 9.70082 6.05291H9.91592V7.66297C9.91592 8.59511 9.24912 9.34567 8.421 9.34567H2.85002C2.0219 9.34567 1.3551 8.59511 1.3551 7.66297V5.29025C1.3551 4.86655 1.05397 4.52759 0.677552 4.52759C0.301134 4.52759 0 4.86655 0 5.29025V7.66297C0 9.43041 1.27982 10.871 2.85002 10.871H8.421C9.9912 10.871 11.271 9.43041 11.271 7.66297V5.29025C11.271 4.86655 10.9699 4.52759 10.5935 4.52759Z" fill="white"/>
        <path d="M21.2945 4.51537C20.918 4.51537 20.6169 4.85434 20.6169 5.27803V7.72339C20.6169 8.65553 19.9501 9.40608 19.122 9.40608C18.2939 9.40608 17.6271 8.65553 17.6271 7.72339V2.43319C17.6271 2.0095 17.3259 1.67053 16.9495 1.67053C16.5731 1.67053 16.272 2.0095 16.272 2.43319V7.72339C16.272 9.49083 17.5518 10.9314 19.122 10.9314C20.6922 10.9314 21.972 9.49083 21.972 7.72339V5.27803C21.972 4.86644 21.6709 4.51537 21.2945 4.51537Z" fill="white"/>
        <path d="M42.8682 5.29025C42.8682 4.86655 42.567 4.52759 42.1906 4.52759C41.8142 4.52759 41.5131 4.86655 41.5131 5.29025V7.73561C41.5131 8.66775 40.8463 9.4183 40.0182 9.4183C39.19 9.4183 38.5232 8.66775 38.5232 7.73561V5.29025C38.5232 4.86655 38.2221 4.52759 37.8457 4.52759C37.8457 4.52759 37.8457 4.52759 37.8349 4.52759C37.4585 4.52759 37.1574 4.86655 37.1574 5.29025V7.73561C37.1574 8.60722 36.5659 9.32146 35.813 9.4062C35.7915 9.4062 35.7593 9.4062 35.7377 9.4183H35.727C35.7055 9.4183 35.684 9.4183 35.6732 9.4183H35.6625C34.8451 9.4062 34.1783 8.61933 34.1783 7.68718V5.35078C34.1783 5.29025 34.1675 5.21761 34.1568 5.16919C34.0815 4.80602 33.8019 4.53969 33.4577 4.52759C33.447 4.52759 33.4362 4.52759 33.4255 4.52759C33.2211 4.52759 33.0383 4.62443 32.8985 4.76971C32.7694 4.92708 32.6834 5.13288 32.6834 5.36289V7.68718C32.6834 8.58301 32.0704 9.36988 31.2638 9.4183C30.5002 9.46673 29.8441 8.84934 29.7151 8.03825C29.7151 7.75982 29.7151 5.33867 29.7151 5.33867C29.7151 4.99972 29.5645 4.69707 29.1881 4.60022C29.1343 4.58812 29.0698 4.57602 29.016 4.57602H27.0479C26.2843 4.5397 25.553 4.85445 25.0045 5.44762C24.4452 6.0408 24.1441 6.8519 24.1333 7.7235C24.1333 9.46673 25.4454 10.8831 26.9941 10.8831H27.7684C28.1234 10.8831 28.446 10.5804 28.4675 10.1688C28.489 9.72094 28.1771 9.35777 27.79 9.35777H26.9618C26.1767 9.35777 25.5099 8.66775 25.4777 7.77192C25.4669 7.29979 25.6282 6.86399 25.9294 6.54925C26.2198 6.2345 26.5962 6.07712 26.9941 6.10133H28.3277V7.67508C28.3277 9.4062 29.5215 10.8589 31.0487 10.9316C32.0058 10.98 32.8555 10.4957 33.404 9.72095C33.8987 10.411 34.6408 10.8831 35.4796 10.9316H35.4904C35.5334 10.9316 35.5872 10.9316 35.641 10.9316H35.6517C35.6732 10.9316 35.6947 10.9316 35.727 10.9316C35.77 10.9316 35.8238 10.9315 35.8668 10.9194C35.9744 10.9073 36.0819 10.8952 36.1787 10.871C36.3723 10.8347 36.5659 10.7742 36.7487 10.6773C36.781 10.6652 36.8025 10.6531 36.8347 10.6289C37.2219 10.4352 37.5553 10.1325 37.8242 9.78148C38.3512 10.4836 39.1255 10.9194 39.9966 10.9194C41.5668 10.9194 42.8467 9.47883 42.8467 7.71139V5.29025H42.8682Z" fill="white"/>
        <path d="M57.7206 4.52759C56.1504 4.52759 54.8706 5.96817 54.8706 7.73561V7.74771C54.8706 8.67984 54.2038 9.43041 53.3757 9.43041H52.8057C53.0853 8.93407 53.2466 8.353 53.2466 7.73561C53.2466 5.96817 51.9668 4.52759 50.3966 4.52759H48.4607C48.0843 4.52759 47.7832 4.86655 47.7832 5.29025C47.7832 5.71395 48.0843 6.05291 48.4607 6.05291H50.3966C51.2247 6.05291 51.8915 6.80346 51.8915 7.73561C51.8915 8.66775 51.2247 9.4183 50.3966 9.4183H48.4607C48.0843 9.4183 47.7832 9.75726 47.7832 10.181C47.7832 10.6046 48.0843 10.9436 48.4607 10.9436H50.1707C50.2137 10.9558 50.2568 10.9558 50.3105 10.9558H53.3864C54.2575 10.9558 55.0426 10.5079 55.5696 9.80568C56.0966 10.4957 56.871 10.9316 57.7313 10.9316C59.3015 10.9316 60.5814 9.49094 60.5814 7.7235C60.5706 5.95607 59.2908 4.52759 57.7206 4.52759ZM57.7206 9.4062C56.8925 9.4062 56.2257 8.65564 56.2257 7.7235C56.2257 6.79137 56.8925 6.0408 57.7206 6.0408C58.5487 6.0408 59.2155 6.79137 59.2155 7.7235C59.2155 8.65564 58.538 9.4062 57.7206 9.4062Z" fill="white"/>
        <path d="M45.6001 4.52759H44.7397C44.3633 4.52759 44.0621 4.86655 44.0621 5.29025C44.0621 5.71395 44.3633 6.05291 44.7397 6.05291H44.9225V9.98727C44.9225 10.9194 44.2557 11.67 43.4276 11.67C43.0512 11.67 42.75 12.009 42.75 12.4327C42.75 12.8564 43.0512 13.1952 43.4276 13.1952C44.9978 13.1952 46.2776 11.7547 46.2776 9.98727V5.29025C46.2776 4.86655 45.9657 4.52759 45.6001 4.52759Z" fill="white"/>
        <path d="M14.2709 4.52759H13.4105C13.0341 4.52759 12.7329 4.86655 12.7329 5.29025C12.7329 5.71395 13.0341 6.05291 13.4105 6.05291H13.5933V9.98727C13.5933 10.9194 12.9265 11.67 12.0984 11.67C11.722 11.67 11.4209 12.009 11.4209 12.4327C11.4209 12.8564 11.722 13.1952 12.0984 13.1952C13.6686 13.1952 14.9484 11.7547 14.9484 9.98727V5.29025C14.9484 4.86655 14.6473 4.52759 14.2709 4.52759Z" fill="white"/>
        <path d="M3.65704 6.04082H6.45328C6.8297 6.04082 7.13084 5.70187 7.13084 5.27816C7.13084 4.85447 6.8297 4.5155 6.45328 4.5155H3.65704C3.28062 4.5155 2.97949 4.85447 2.97949 5.27816C2.97949 5.70187 3.28062 6.04082 3.65704 6.04082Z" fill="white"/>
        <path d="M20.6818 12.1177H17.5522C17.0897 12.1177 16.7026 12.5414 16.7026 13.074C16.7026 13.6066 17.079 14.0303 17.5522 14.0303H19.8322V14.6356C19.8322 15.1562 20.2086 15.592 20.6818 15.592C21.155 15.592 21.5315 15.1683 21.5315 14.6356V13.074C21.5207 12.5414 21.1443 12.1177 20.6818 12.1177Z" fill="white"/>
        <path d="M4.44701 26.8496H2.32631C1.2335 26.8496 0.335449 27.8694 0.335449 29.138C0.335449 30.3942 1.22268 31.4265 2.32631 31.4265C3.41912 31.4265 4.31717 30.4066 4.31717 29.138V27.4715H4.44701C4.59848 27.4715 4.7175 27.3347 4.7175 27.1606C4.7175 26.9864 4.58766 26.8496 4.44701 26.8496ZM3.77617 29.1256C3.77617 30.0459 3.12698 30.7922 2.32631 30.7922C1.52564 30.7922 0.876443 30.0459 0.876443 29.1256C0.876443 28.2052 1.52564 27.459 2.32631 27.459H3.77617V29.1256Z" fill="white"/>
        <path d="M15.2122 26.775H14.6495C14.4981 26.775 14.379 26.9118 14.379 27.086C14.379 27.2601 14.4981 27.3969 14.6495 27.3969H14.9525V29.2002C14.9525 30.1082 14.3033 30.8544 13.5135 30.8544C12.7344 30.8544 12.1069 30.1454 12.0744 29.2624C12.0744 29.2376 12.0744 29.2251 12.0744 29.2002V27.086C12.0744 26.9118 11.9554 26.775 11.8039 26.775C11.6524 26.775 11.5334 26.9118 11.5334 27.086V29.2002C11.5334 29.2251 11.5334 29.2376 11.5334 29.2624C11.5118 30.1454 10.8734 30.8544 10.0944 30.8544C9.30452 30.8544 8.65533 30.1082 8.65533 29.2002C8.65533 29.138 8.64451 29.0883 8.61205 29.0386C8.57959 27.8198 7.70318 26.8497 6.64284 26.8497H5.51757C5.36609 26.8497 5.24707 26.9865 5.24707 27.1605C5.24707 27.3347 5.36609 27.4715 5.51757 27.4715H6.64284C7.43269 27.4715 8.08188 28.2177 8.08188 29.1256C8.08188 30.0335 7.43269 30.7797 6.64284 30.7797H5.51757C5.36609 30.7797 5.24707 30.9166 5.24707 31.0906C5.24707 31.2648 5.36609 31.4016 5.51757 31.4016H6.64284C7.36777 31.4016 8.00614 30.9415 8.35237 30.2698C8.68779 30.9912 9.33698 31.4886 10.0944 31.4886C10.8193 31.4886 11.4577 31.0285 11.7931 30.3569C12.1393 31.0285 12.7669 31.4886 13.4918 31.4886C14.5738 31.4886 15.461 30.4689 15.461 29.2251V27.1108C15.4827 26.9118 15.3637 26.775 15.2122 26.775Z" fill="white"/>
        <path d="M59.9754 26.825H59.4669C59.3154 26.825 59.1964 26.9618 59.1964 27.1359C59.1964 27.3099 59.3154 27.4467 59.4669 27.4467H59.7158V29.2502C59.7158 30.158 59.0666 30.9042 58.2767 30.9042H55.3445C55.2255 30.9042 55.1173 30.842 55.0416 30.7426L54.5655 30.1083L56.1452 28.0313C56.2318 27.907 56.2318 27.7328 56.1344 27.6085C55.6367 27.0363 55.0308 26.7627 54.2193 26.7627C53.4835 26.7627 52.8343 27.0363 52.3366 27.5463C52.3258 27.5587 52.3042 27.5711 52.2933 27.5835C52.2717 27.6085 52.2609 27.6209 52.2501 27.6457C52.0553 27.8572 51.893 28.106 51.7632 28.3919C51.6982 28.5412 51.7415 28.7277 51.8714 28.8024C52.0012 28.877 52.1635 28.8273 52.2284 28.678C52.2933 28.5288 52.3799 28.3919 52.4665 28.2676L53.8622 30.1083L53.3645 30.755C53.2888 30.8545 53.1806 30.9167 53.0616 30.9167H51.4818C50.692 30.9167 50.0428 30.1705 50.0428 29.2625C50.0428 29.2625 50.0428 29.2626 50.0428 29.2502V29.2377C50.0428 27.907 49.1015 26.8125 47.9329 26.8125H45.585C45.5634 26.8125 45.5526 26.8125 45.5309 26.825C45.4985 26.825 45.4552 26.8125 45.4227 26.8125C44.2975 26.8125 43.3886 27.8572 43.3886 29.1506C43.3886 29.8222 43.6374 30.4192 44.027 30.8545H41.6574C42.0469 30.4316 42.285 29.8347 42.285 29.1755C42.285 27.8945 41.3761 26.8498 40.2616 26.8498H38.7036C38.5521 26.8498 38.4331 26.9866 38.4331 27.1608C38.4331 27.3348 38.5521 27.4717 38.7036 27.4717H40.2616C41.084 27.4717 41.7548 28.2428 41.7548 29.188C41.7548 30.0212 41.2354 30.7177 40.543 30.867H40.5105C40.4239 30.8794 40.3482 30.8918 40.2616 30.8918H38.7036C38.5521 30.8918 38.4331 31.0286 38.4331 31.2028C38.4331 31.3768 38.5521 31.5136 38.7036 31.5136H40.2616C40.3482 31.5136 40.4348 31.5012 40.5105 31.4888V31.5012H44.9791V31.4515C45.1198 31.4888 45.2712 31.5136 45.4227 31.5136H46.9267V31.6878C46.9267 31.8619 47.0457 31.9987 47.1972 31.9987C47.3487 31.9987 47.4677 31.8619 47.4677 31.6878V29.1755C47.4677 28.4915 47.208 27.8696 46.7968 27.4467H47.9438C48.8093 27.4467 49.5126 28.2551 49.5126 29.2502C49.5126 30.158 48.8634 30.9042 48.0736 30.9042C47.9221 30.9042 47.8031 31.041 47.8031 31.2152C47.8031 31.3893 47.9221 31.5261 48.0736 31.5261C48.7985 31.5261 49.4261 31.0784 49.7723 30.4068C50.1077 31.0908 50.7569 31.551 51.4818 31.551H53.0616C53.332 31.551 53.5917 31.4142 53.7648 31.1778L54.2085 30.5933L54.6413 31.1654C54.8144 31.4017 55.074 31.5385 55.3445 31.5385H58.2767C59.3587 31.5385 60.2459 30.5187 60.2459 29.275V27.1608C60.2459 26.9618 60.1269 26.825 59.9754 26.825ZM46.9267 29.1631V30.8918H45.4227C44.5896 30.8918 43.9188 30.1207 43.9188 29.1631C43.9188 28.2054 44.5896 27.4343 45.4227 27.4343C46.2558 27.4343 46.9267 28.2179 46.9267 29.1631ZM52.856 27.8572C53.2238 27.5463 53.6891 27.3846 54.2193 27.3846C54.7927 27.3846 55.2039 27.5338 55.5718 27.8572L54.2085 29.6481L52.856 27.8572Z" fill="white"/>
        <path d="M26.8888 26.775C26.7373 26.775 26.6183 26.9118 26.6183 27.086V29.1256C26.6183 30.0832 25.9474 30.8544 25.1143 30.8544C24.3569 30.8544 23.7185 30.1952 23.6212 29.3495C23.632 29.3122 23.6428 29.2748 23.6428 29.2376V27.1233C23.6428 27.0362 23.6103 26.9616 23.5671 26.9118C23.513 26.8497 23.448 26.8247 23.3831 26.8247H21.7493C21.1975 26.7999 20.6782 27.0237 20.2778 27.4591C19.8775 27.8944 19.6611 28.4914 19.6611 29.1256C19.6611 30.3942 20.5591 31.4264 21.6628 31.4264H22.3661C22.5175 31.4264 22.6366 31.2896 22.6366 31.1155C22.6366 30.9415 22.5175 30.8047 22.3661 30.8047H21.6628C20.8513 30.8047 20.1913 30.046 20.1913 29.1132C20.1913 28.653 20.3536 28.2177 20.6457 27.8944C20.9378 27.571 21.3274 27.4093 21.7385 27.4342H23.091V29.1256C23.091 30.419 24.0107 31.4638 25.1251 31.4638C26.2504 31.4638 27.1593 30.4066 27.1593 29.1256V27.086C27.1593 26.9118 27.0402 26.775 26.8888 26.775Z" fill="white"/>
        <path d="M37.1674 26.8745H36.5615C35.4578 26.8745 34.549 27.9316 34.549 29.2375V29.25C34.549 29.2624 34.549 29.2624 34.549 29.2624V29.5981C34.549 30.531 33.8998 31.302 33.1099 31.302H31.1407C30.2535 31.302 29.5285 30.4439 29.5285 29.3992C29.5285 28.3545 30.2535 27.4964 31.1407 27.4964H32.6555C32.8178 27.4964 32.9476 27.3471 32.9476 27.1606C32.9476 26.974 32.8178 26.8247 32.6555 26.8247H31.1407C29.9397 26.8247 28.9551 27.9814 28.9551 29.4116C28.9551 30.8419 29.9397 31.9985 31.1407 31.9985H33.1099C34.2244 31.9985 35.1224 30.929 35.1224 29.6231V29.2997V29.2873C35.1224 29.2748 35.1224 29.2748 35.1224 29.2748C35.1224 28.3421 35.7716 27.5709 36.5615 27.5709H37.1674C37.3297 27.5709 37.4595 27.4218 37.4595 27.2351C37.4487 27.0238 37.3188 26.8745 37.1674 26.8745Z" fill="white"/>
        <path d="M16.9873 25.4692H16.5112C16.3597 25.4692 16.2407 25.606 16.2407 25.7801C16.2407 25.9542 16.3597 26.091 16.5112 26.091H16.7168V31.1156C16.7168 31.2897 16.8358 31.4265 16.9873 31.4265C17.1388 31.4265 17.2578 31.2897 17.2578 31.1156V25.7801C17.2578 25.606 17.1388 25.4692 16.9873 25.4692Z" fill="white"/>
        <path d="M18.2975 23.8275H15.9929C15.4303 23.8275 14.9109 24.2131 14.6945 24.8101C14.6404 24.9594 14.6945 25.1459 14.8352 25.2081C14.8676 25.2205 14.9001 25.233 14.9434 25.233C15.0516 25.233 15.149 25.1583 15.1922 25.0463C15.3329 24.6733 15.6467 24.4246 16.0037 24.4246H18.3084C18.4598 24.4246 18.5789 24.2878 18.5789 24.1136C18.568 23.9643 18.449 23.8275 18.2975 23.8275Z" fill="white"/>
        <path d="M57.1835 27.4218H58.417C58.5468 27.4218 58.6442 27.285 58.6442 27.1108C58.6442 26.9367 58.536 26.7999 58.417 26.7999H57.1835C57.0537 26.7999 56.9563 26.9367 56.9563 27.1108C56.9455 27.285 57.0537 27.4218 57.1835 27.4218Z" fill="white"/>
        <path d="M14.2183 32.7074H12.79C12.6386 32.7074 12.5195 32.8442 12.5195 33.0184C12.5195 33.1925 12.6386 33.3293 12.79 33.3293H14.2183C14.3697 33.3293 14.4888 33.1925 14.4888 33.0184C14.4888 32.8442 14.3697 32.7074 14.2183 32.7074Z" fill="white"/>
        <path d="M9.73827 27.4218H10.0845C10.236 27.4218 10.355 27.285 10.355 27.1108C10.355 26.9367 10.236 26.7999 10.0845 26.7999H9.73827C9.58679 26.7999 9.46777 26.9367 9.46777 27.1108C9.46777 27.285 9.58679 27.4218 9.73827 27.4218Z" fill="white"/>
        <path d="M25.2861 32.4961H24.9399C24.7884 32.4961 24.6694 32.6329 24.6694 32.8071C24.6694 32.9812 24.7884 33.118 24.9399 33.118H25.2861C25.4376 33.118 25.5566 32.9812 25.5566 32.8071C25.5566 32.6329 25.4376 32.4961 25.2861 32.4961Z" fill="white"/>
        <path d="M108.666 19.8611C108.666 20.5714 108.231 21.1897 107.631 21.4264C108.244 21.6764 108.666 22.2813 108.666 22.9917C108.666 22.2813 109.1 21.6632 109.701 21.4264C109.1 21.1897 108.666 20.5714 108.666 19.8611ZM102.571 2.18215C102.328 2.16901 102.085 2.15585 101.83 2.18215C101.025 2.27423 100.322 2.60309 99.7338 3.18186C99.6316 3.27394 99.5421 3.37916 99.4527 3.49756C99.1843 3.83956 98.9671 4.22102 98.7626 4.61564C98.7499 4.64194 98.7371 4.66825 98.7371 4.69457C98.6604 4.83926 98.5838 4.98394 98.5199 5.14179L98.4176 5.39172C98.3793 5.45749 98.3538 5.53642 98.3282 5.61533C98.226 5.89158 98.2899 6.16781 98.5199 6.35196C98.8777 6.6545 99.2482 6.97019 99.606 7.27274C99.7338 7.39112 99.8999 7.43059 100.079 7.41743C100.207 7.41743 100.322 7.33851 100.424 7.27274C100.424 7.27274 101.331 6.78604 102.06 5.83895C102.405 5.40488 102.647 4.95764 102.788 4.47095C102.967 3.81325 102.967 3.11609 102.75 2.37947C102.75 2.24793 102.673 2.18215 102.571 2.18215ZM97.9065 7.93044C97.881 8.11459 98.0599 8.27244 98.2387 8.20667L99.7849 7.66735L98.1237 6.28619L97.9065 7.93044ZM98.0471 5.57588C98.226 5.10234 98.456 4.64194 98.7243 4.20786C98.7754 4.11579 98.8138 4.02371 98.7499 3.93164C98.6732 3.8264 98.5838 3.83956 98.4815 3.86587C98.0343 3.95794 97.6637 4.40518 97.3826 4.73402C97.2037 4.94449 97.012 5.22072 97.1526 5.51011C97.2932 5.86526 97.8937 5.9968 98.0471 5.57588ZM109.254 8.06198C108.308 7.68051 107.631 6.72027 107.631 5.61533C107.631 6.73343 106.954 7.68051 106.008 8.06198C106.954 8.44344 107.631 9.40368 107.631 10.5086C107.631 9.39053 108.308 8.44344 109.254 8.06198ZM80.8605 0.840454C80.8605 1.74808 80.311 2.52415 79.5444 2.8267C80.311 3.1424 80.8605 3.90533 80.8605 4.81295C80.8605 3.90533 81.41 3.12924 82.1766 2.8267C81.41 2.51101 80.8605 1.73492 80.8605 0.840454ZM101.842 6.47034C101.727 6.41773 101.638 6.4835 101.561 6.57558C101.165 6.98335 100.756 7.36481 100.309 7.69366C99.9255 7.98305 100.207 8.61444 100.603 8.69337C100.948 8.75914 101.178 8.48289 101.357 8.21982C101.638 7.81205 102.008 7.27274 101.996 6.75973C101.983 6.62819 101.97 6.52297 101.842 6.47034Z" fill="white"/>
        <path d="M86.2588 27.727C87.2683 31.2128 89.1467 33.5016 89.53 34.1593C89.5428 34.0672 89.53 33.9883 89.5172 33.9094C89.3256 32.9623 88.5078 30.3578 88.5078 29.3713C88.5078 29.0688 88.5717 29.0161 88.8656 29.1082C90.9995 29.8053 93.159 29.9237 95.3568 29.4633C95.8296 29.3713 96.3024 29.2398 96.7624 29.0818C93.0184 27.7533 87.345 24.5174 85.4282 22.7285C85.4794 24.3333 85.7349 25.9118 86.2588 27.727Z" fill="white"/>
        <path d="M113.028 29.5292C112.594 28.6347 111.98 27.885 111.29 27.1877C110.562 26.438 109.77 25.754 108.965 25.0963C108.607 24.8069 108.249 24.5176 107.904 24.2018C107.572 23.8993 107.227 23.6099 106.805 23.4652C106.064 23.2153 105.272 23.6757 105.272 24.5438C105.272 25.1489 105.745 25.6093 106.179 25.9513C106.959 26.5564 107.738 27.1747 108.492 27.8192C108.85 28.1217 110.204 29.0425 109.744 29.6476C109.514 29.9502 108.914 29.7791 108.607 29.7265C106.908 29.4371 103.509 28.2138 100.608 26.9773C101.924 25.925 103.049 24.6096 103.905 23.1232C106.665 18.3483 106.46 11.7582 102.09 8.20665C102.141 8.31187 102.589 9.06164 102.908 10.0877C103.33 11.3899 103.636 13.1131 103.636 14.139C103.636 16.4278 103.061 18.5194 101.694 20.3609C99.0619 23.9125 93.4651 24.5438 90.4494 20.5714C89.0566 18.7298 88.5838 16.612 88.8394 14.3101C88.8394 14.3101 89.0694 14.8231 89.1333 14.981C89.6061 16.0332 90.3089 17.0198 91.1778 17.7564C92.1234 18.5588 93.2734 19.0849 94.5512 19.1245C96.8641 19.1901 98.9086 17.5064 99.4836 15.2308C99.8669 13.7181 99.6369 12.0081 98.8447 10.6796C98.653 10.3639 98.4102 9.99558 98.1547 9.71935C98.0013 9.90351 97.733 10.2192 97.2857 10.7848C97.2091 10.8901 97.1835 11.0216 97.273 11.1269C97.5796 11.5083 97.7457 12.1002 97.6563 12.6001C97.6052 12.8894 97.4774 13.1525 97.2985 13.3761C97.2474 13.4419 96.7746 13.9023 96.7235 13.8366C97.0046 14.1786 97.1324 14.6653 97.0046 15.165C96.8385 15.7833 96.289 16.2042 95.6757 16.2306C95.2157 16.2438 94.9346 16.0464 94.5896 15.7701C94.5384 15.7307 94.4873 15.6781 94.4234 15.6387C93.8101 16.1253 92.9412 16.1384 92.3023 15.6781C91.8295 15.3229 91.5611 14.6653 91.5356 14.047C91.5356 13.968 91.6378 13.9154 91.6889 13.9812C92.0595 14.4021 92.6345 14.4416 93.0562 14.0733C93.0306 14.0996 92.7751 13.9418 92.7367 13.9154C92.6217 13.8497 92.5195 13.7708 92.4173 13.6918C92.2256 13.534 92.0467 13.3499 91.9189 13.1262C91.2417 12.0213 91.9189 10.4692 92.9923 9.92981C93.2606 9.79827 93.5545 9.71935 93.8484 9.71935C94.2062 9.71935 94.564 9.81143 94.8579 10.0219C95.1135 10.206 95.4329 10.4822 95.7651 10.3376C95.9696 10.2455 96.0974 10.0219 96.2379 9.85088C96.4168 9.62726 96.9535 8.94326 97.043 8.83804C94.8579 7.48318 91.7528 7.61471 89.5678 9.44311C87.0121 11.5872 85.8621 15.4282 85.5171 18.7298C84.4948 18.0853 83.4981 17.4276 82.5014 16.7435C83.2681 12.8632 84.9421 8.95642 88.2133 6.66763C89.555 5.7337 91.1267 5.076 92.7495 4.76031C93.7206 4.49722 95.3051 4.29991 97.5285 4.66823C97.2218 4.48408 96.9024 4.32623 96.5702 4.19469C93.1712 2.77406 89.2739 2.98452 86.0921 4.87869C82.6165 6.94386 80.4442 10.6664 79.8692 14.7179C79.8692 14.7441 78.9236 14.0206 78.7958 13.9154C78.4124 13.5997 74.4129 10.456 73.1223 8.86434C72.9945 8.7065 72.9179 8.54865 73.0329 8.35133C73.1479 8.15402 73.3268 8.07511 73.544 8.12772C75.1668 8.48288 76.6874 9.20634 78.2719 9.70619C79.2686 10.0219 79.9586 9.37734 79.9586 8.62756C79.9586 7.50948 78.6041 7.27271 77.8119 6.99648C76.2274 6.45717 74.6557 5.94416 72.9945 5.69423C72.2151 5.57585 71.4611 5.62846 70.7328 5.93101C70.2089 6.15463 69.7872 6.61501 69.6339 7.18063C69.4678 7.82518 69.7233 8.50918 70.03 9.0748C70.7072 10.3113 71.64 11.311 72.624 12.2713C74.8218 14.4021 77.2369 16.2832 79.7286 18.0458C79.7797 19.1639 79.933 20.2819 80.1758 21.3737C80.5975 23.2942 81.2109 25.2147 82.1053 26.9642C82.067 26.7011 82.1053 26.9642 82.0542 26.1618C81.9137 24.0177 81.8881 21.8342 82.0926 19.6768C82.0798 19.769 82.9359 20.2425 83.0381 20.3083C83.3704 20.5319 83.6898 20.7424 84.022 20.966C84.6865 21.4001 85.3382 21.821 86.0027 22.2551C87.3316 23.097 88.6733 23.9256 90.0278 24.7149C92.7112 26.2933 95.4712 27.7402 98.308 29.003C100.953 30.1738 103.662 31.1866 106.435 31.989C107.368 32.2652 108.313 32.502 109.272 32.6335C110.179 32.7651 111.15 32.8571 112.044 32.5678C112.747 32.3442 113.233 31.7523 113.284 31.0946C113.361 30.5421 113.271 30.029 113.028 29.5292Z" fill="white"/>
    </g>
    <defs>
        <clipPath id="clip0_71_158">
            <rect width="114" height="35" fill="white"/>
        </clipPath>
    </defs>
</svg>
