<svg width="15" height="14" viewBox="0 0 15 14" fill="none" xmlns="http://www.w3.org/2000/svg">
<path d="M8.24307 12.9062L7.52432 13.5937C7.37848 13.7396 7.2014 13.8125 6.99307 13.8125C6.78473 13.8125 6.60765 13.7396 6.46182 13.5937L0.399317 7.53125C0.253484 7.38542 0.180567 7.20833 0.180567 7C0.180567 6.79167 0.253484 6.61458 0.399317 6.46875L6.46182 0.406249C6.60765 0.260416 6.78473 0.187499 6.99307 0.187499C7.2014 0.187499 7.37848 0.260416 7.52432 0.406249L8.24307 1.09375C8.3889 1.23958 8.46182 1.41667 8.46182 1.625C8.44098 1.83333 8.35765 2.01042 8.21182 2.15625L4.46182 5.75L13.4306 5.75C13.6389 5.75 13.816 5.82292 13.9618 5.96875C14.1077 6.11458 14.1806 6.29167 14.1806 6.5L14.1806 7.5C14.1806 7.70833 14.1077 7.88542 13.9618 8.03125C13.816 8.17708 13.6389 8.25 13.4306 8.25L4.46182 8.25L8.21182 11.8437C8.35765 11.9896 8.44098 12.1667 8.46182 12.375C8.46182 12.5833 8.3889 12.7604 8.24307 12.9062Z" fill="#212121"/>
</svg>
